<svg width="17" height="13" viewBox="0 0 17 13" fill="none" xmlns="http://www.w3.org/2000/svg">
<path d="M14.233 5.73886C13.8659 2.78857 11.3904 0.5 8.4 0.5C6.08496 0.5 4.074 1.88 3.15588 4.05629C1.35156 4.60743 0 6.34571 0 8.21429C0 10.4917 1.75476 12.3414 3.95472 12.4751V12.5H13.4316V12.4974L13.44 12.5C15.293 12.5 16.8 10.9623 16.8 9.07143C16.799 8.30302 16.5456 7.55713 16.0802 6.953C15.6149 6.34887 14.9645 5.92137 14.233 5.73886ZM5.04 6.5H7.56V3.92857H9.24V6.5H11.76L8.4 10.7857L5.04 6.5Z" fill="white"/>
</svg>
