<svg width="17" height="13" viewBox="0 0 17 13" fill="none" xmlns="http://www.w3.org/2000/svg">
<path d="M16.8 11V2C16.8 1.17 16.1383 0.5 15.3185 0.5H1.48148C0.661728 0.5 0 1.17 0 2V11C0 11.83 0.661728 12.5 1.48148 12.5H15.3185C16.1383 12.5 16.8 11.83 16.8 11ZM15.5062 1.89C15.8321 2.22 15.6543 2.56 15.4765 2.73L11.4667 6.45L15.3185 10.51C15.437 10.65 15.516 10.87 15.3778 11.02C15.2494 11.18 14.9531 11.17 14.8247 11.07L10.5086 7.34L8.39506 9.29L6.29136 7.34L1.97531 11.07C1.84691 11.17 1.55062 11.18 1.42222 11.02C1.28395 10.87 1.36296 10.65 1.48148 10.51L5.33333 6.45L1.32346 2.73C1.14568 2.56 0.967901 2.22 1.29383 1.89C1.61975 1.56 1.95556 1.72 2.2321 1.96L8.39506 7L14.5679 1.96C14.8444 1.72 15.1802 1.56 15.5062 1.89Z" fill="white"/>
</svg>
