<svg width="53" height="28" viewBox="0 0 53 28" fill="none" xmlns="http://www.w3.org/2000/svg">
<path d="M26.4 28C40.9803 28 52.8 21.732 52.8 14C52.8 6.26801 40.9803 0 26.4 0C11.8197 0 0 6.26801 0 14C0 21.732 11.8197 28 26.4 28Z" fill="url(#paint0_radial_65_1151)"/>
<path d="M26.401 26.9598C40.4118 26.9598 51.7697 21.1575 51.7697 13.9999C51.7697 6.84238 40.4118 1.04004 26.401 1.04004C12.3902 1.04004 1.03223 6.84238 1.03223 13.9999C1.03223 21.1575 12.3902 26.9598 26.401 26.9598Z" fill="#6181B6"/>
<path d="M31.5357 18.2021L32.7938 11.6701C33.0826 10.1931 32.8351 9.09061 32.0926 8.40414C31.3707 7.73846 30.1332 7.40562 28.3182 7.40562H26.132L26.7507 4.16045C26.7713 4.03564 26.7507 3.91082 26.6682 3.80681C26.5857 3.7028 26.4826 3.66119 26.3588 3.66119H23.3476C23.1413 3.66119 22.9763 3.80681 22.9351 3.99403L21.5945 10.9212C21.4707 10.1307 21.182 9.46506 20.687 8.9242C19.8001 7.90488 18.4182 7.38482 16.5413 7.38482H10.7457C10.5395 7.38482 10.3745 7.53044 10.3332 7.71766L7.63134 21.7801C7.61072 21.9049 7.63134 22.0297 7.71384 22.1337C7.79634 22.2377 7.89947 22.2793 8.02322 22.2793H11.0551C11.2613 22.2793 11.4263 22.1337 11.4676 21.9465L12.1276 18.5557H14.3757C15.5513 18.5557 16.562 18.4309 17.3251 18.1813C18.1295 17.9108 18.8513 17.474 19.4907 16.8707C20.0063 16.3922 20.4395 15.8514 20.7695 15.2689L20.2332 18.0772C20.2126 18.2021 20.2332 18.3269 20.3157 18.4309C20.3982 18.5349 20.5013 18.5765 20.6251 18.5765H23.6363C23.8426 18.5765 24.0076 18.4309 24.0488 18.2437L25.5338 10.5468H27.5963C28.4832 10.5468 28.7307 10.7132 28.8132 10.7964C28.8751 10.8588 28.9988 11.1084 28.8545 11.8781L27.6582 18.098C27.6376 18.2229 27.6582 18.3477 27.7407 18.4517C27.8232 18.5557 27.9263 18.5973 28.0501 18.5973H31.1438C31.3295 18.5349 31.4945 18.3893 31.5357 18.2021ZM17.5932 12.7934C17.4076 13.7711 17.057 14.4784 16.5413 14.8737C16.0257 15.2689 15.1801 15.4769 14.0663 15.4769H12.7257L13.6951 10.4428H15.4276C16.7063 10.4428 17.222 10.7132 17.4282 10.942C17.6963 11.2749 17.7582 11.9197 17.5932 12.7934Z" fill="white"/>
<path d="M44.4053 8.9242C43.5184 7.90489 42.1365 7.38483 40.2597 7.38483H34.4228C34.2165 7.38483 34.0515 7.53044 34.0103 7.71766L31.3084 21.7593C31.2878 21.8841 31.3084 22.0089 31.3909 22.1129C31.4734 22.2169 31.5765 22.2585 31.7003 22.2585H34.7322C34.9384 22.2585 35.1034 22.1129 35.1447 21.9257L35.8047 18.5349H38.0528C39.2284 18.5349 40.239 18.4101 41.0022 18.1605C41.8065 17.89 42.5284 17.4532 43.1678 16.8499C43.704 16.3506 44.1578 15.789 44.4878 15.1857C44.8178 14.5824 45.0653 13.9168 45.2097 13.1887C45.5603 11.3789 45.2922 9.96432 44.4053 8.9242ZM41.2497 12.7934C41.064 13.7712 40.7134 14.4784 40.1978 14.8737C39.6822 15.2689 38.8365 15.4769 37.7228 15.4769H36.3822L37.3515 10.4428H39.084C40.3628 10.4428 40.8784 10.7132 41.0847 10.942C41.3734 11.2749 41.4353 11.9197 41.2497 12.7934Z" fill="white"/>
<path d="M15.4274 10.0266C16.5824 10.0266 17.3455 10.2347 17.7374 10.6715C18.1293 11.1084 18.2118 11.8364 18.0055 12.8766C17.7993 13.9583 17.3868 14.7488 16.7886 15.2064C16.1905 15.6641 15.283 15.8929 14.0661 15.8929H12.2305L13.3649 10.0266H15.4274ZM8.04364 21.8424H11.0755L11.7974 18.1188H14.3961C15.5511 18.1188 16.4793 17.9939 17.2218 17.7443C17.9643 17.4947 18.6243 17.0994 19.243 16.517C19.7586 16.0385 20.1711 15.5185 20.4805 14.9568C20.7899 14.3951 21.0168 13.7711 21.1405 13.0846C21.4705 11.4204 21.223 10.1306 20.4186 9.19454C19.6143 8.25843 18.3355 7.80078 16.5824 7.80078H10.7455L8.04364 21.8424Z" fill="#000004"/>
<path d="M23.3678 4.07684H26.3791L25.6572 7.80047H28.3385C30.0297 7.80047 31.1847 8.0917 31.8241 8.69497C32.4635 9.29824 32.6491 10.2551 32.4016 11.5865L31.1435 18.1185H28.091L29.2872 11.8985C29.4316 11.1913 29.3697 10.7128 29.1428 10.4632C28.916 10.2135 28.4003 10.0679 27.6372 10.0679H25.2241L23.6772 18.1185H20.666L23.3678 4.07684Z" fill="#000004"/>
<path d="M39.0844 10.0268C40.2394 10.0268 41.0025 10.2348 41.3944 10.6717C41.7863 11.1085 41.8688 11.8366 41.6625 12.8767C41.4563 13.9585 41.0438 14.749 40.4456 15.2066C39.8475 15.6643 38.94 15.8931 37.7231 15.8931H35.8875L37.0219 10.0268H39.0844ZM31.7006 21.8426H34.7325L35.4544 18.1189H38.0531C39.2081 18.1189 40.1363 17.9941 40.8788 17.7445C41.6213 17.4949 42.2813 17.0996 42.9 16.5172C43.4156 16.0387 43.8281 15.5186 44.1375 14.957C44.4469 14.3953 44.6738 13.7712 44.7975 13.0848C45.1275 11.4206 44.88 10.1308 44.0756 9.19472C43.2713 8.25862 41.9925 7.80096 40.2394 7.80096H34.4025L31.7006 21.8426Z" fill="#000004"/>
<defs>
<radialGradient id="paint0_radial_65_1151" cx="0" cy="0" r="1" gradientUnits="userSpaceOnUse" gradientTransform="translate(15.8506 4.9234) scale(34.6697 34.9678)">
<stop stop-color="white"/>
<stop offset="0.5" stop-color="#4C6B97"/>
<stop offset="1" stop-color="#231F20"/>
</radialGradient>
</defs>
</svg>
